<svg id="Layer_1" data-name="Layer 1" xmlns="http://www.w3.org/2000/svg" viewBox="0 0 526.59 57.06"><defs><style>.cls-1{fill:#ef539e;}.cls-2{fill:#00aeef;}.cls-3{fill:#fff200;}</style></defs><title>Colour Logo 1 full</title><path class="cls-1" d="M5.62,27.11A31.57,31.57,0,0,0,7.17,37.55a21.84,21.84,0,0,0,4.1,7.33A16.91,16.91,0,0,0,17,49.21a15.68,15.68,0,0,0,6.53,1.44,15.12,15.12,0,0,0,6.23-1.25,16,16,0,0,0,4.86-3.3A18.21,18.21,0,0,0,38,41.42a20.45,20.45,0,0,0,1.86-5.35h5.69A28.26,28.26,0,0,1,43,43.7a22.29,22.29,0,0,1-4.59,6.19,20.87,20.87,0,0,1-6.53,4.18,21.94,21.94,0,0,1-8.35,1.52,23.54,23.54,0,0,1-9.72-1.94A20.36,20.36,0,0,1,6.42,48a26.05,26.05,0,0,1-4.75-9A42.5,42.5,0,0,1,.07,24.18,30.27,30.27,0,0,1,6.19,8.32a22.78,22.78,0,0,1,7.36-6A21.09,21.09,0,0,1,23.46,0a26,26,0,0,1,8.39,1.25,20.81,20.81,0,0,1,6.42,3.45A19.68,19.68,0,0,1,42.82,10a28.38,28.38,0,0,1,2.89,6.68H39.78a17.55,17.55,0,0,0-6-8.81A17.13,17.13,0,0,0,23.46,4.94a14.79,14.79,0,0,0-7.21,1.78,17.73,17.73,0,0,0-5.62,4.86,23.88,23.88,0,0,0-3.68,7.1A26.69,26.69,0,0,0,5.62,27.11Z"/><path class="cls-1" d="M57.65,3V55.58H52V3Z"/><path class="cls-1" d="M103.63,3V8.13H86.24V55.58H80.62V8.13H63.24V3Z"/><path class="cls-1" d="M115.69,3V55.58h-5.62V3Z"/><path class="cls-1" d="M122.9,50,156.38,8.13H122.9V3h39.56V9.57l-33,40.92h33v5.09H122.9Z"/><path class="cls-1" d="M202.83,3V8.13H173.37V25.9h27.71V31H173.37V50.5h30.75v5.09H167.75V3Z"/><path class="cls-1" d="M217.9,3l26.72,45.4V3h5.62V55.58h-7.52L216,10.18v45.4h-5.62V3Z"/><path class="cls-1" d="M299.78,3V25.9h28.55V3h5.62V55.58h-5.62V30.83H299.78V55.58h-5.62V3Z"/><path class="cls-1" d="M365.16,3l19.13,52.54h-5.92l-5.85-16.1H350l-5.85,16.1h-6L357.49,3Zm-3.95,5.16L351.8,34.55h18.83Z"/><path class="cls-1" d="M388.39,27.19A31.57,31.57,0,0,0,390,37.63,21.84,21.84,0,0,0,394,45a16.91,16.91,0,0,0,5.73,4.33,15.68,15.68,0,0,0,6.53,1.44,15.12,15.12,0,0,0,6.23-1.25,16,16,0,0,0,4.86-3.3,18.21,18.21,0,0,0,3.38-4.67,20.45,20.45,0,0,0,1.86-5.35h5.69a28.26,28.26,0,0,1-2.54,7.63A22.29,22.29,0,0,1,421.19,50a20.87,20.87,0,0,1-6.53,4.18,21.94,21.94,0,0,1-8.35,1.52,23.54,23.54,0,0,1-9.72-1.94,20.36,20.36,0,0,1-7.4-5.62,26.05,26.05,0,0,1-4.75-9,42.5,42.5,0,0,1-1.6-14.89A30.27,30.27,0,0,1,389,8.4a22.78,22.78,0,0,1,7.36-6A21.09,21.09,0,0,1,406.24.08a26,26,0,0,1,8.39,1.25A20.81,20.81,0,0,1,421,4.79,19.68,19.68,0,0,1,425.6,10a28.38,28.38,0,0,1,2.89,6.68h-5.92a17.55,17.55,0,0,0-6-8.81A17.13,17.13,0,0,0,406.24,5,14.79,14.79,0,0,0,399,6.8a17.73,17.73,0,0,0-5.62,4.86,23.88,23.88,0,0,0-3.68,7.1A26.69,26.69,0,0,0,388.39,27.19Z"/><path class="cls-1" d="M439.27,3V29.92L466.07,3h7.36L452.63,23.7l22,31.89h-7.06L448.76,27.72l-9.49,9.34V55.58h-5.62V3Z"/><path class="cls-1" d="M482.57,39.15a15.84,15.84,0,0,0,1.29,5.2,12.51,12.51,0,0,0,2.89,4.1A13,13,0,0,0,491,51.1a15,15,0,0,0,5.43.95,21.88,21.88,0,0,0,5-.57,12.43,12.43,0,0,0,4.25-1.82,9.33,9.33,0,0,0,2.92-3.26,10.08,10.08,0,0,0,1.1-4.9,6.64,6.64,0,0,0-1.18-4,10.49,10.49,0,0,0-3.11-2.81,23.68,23.68,0,0,0-4.4-2q-2.47-.87-5-1.63-3.19-.91-6.34-2.09a25.21,25.21,0,0,1-5.69-3,14.59,14.59,0,0,1-4.14-4.4A12.43,12.43,0,0,1,478.32,15a12.41,12.41,0,0,1,1.29-5.77A12,12,0,0,1,483.22,5a16.52,16.52,0,0,1,5.5-2.58,26.73,26.73,0,0,1,7.06-.87A21.43,21.43,0,0,1,504.28,3a15.52,15.52,0,0,1,5.47,3.76,14.55,14.55,0,0,1,3,5,20.24,20.24,0,0,1,1.1,5.35h-5.77a12.44,12.44,0,0,0-1.25-4.59,10.43,10.43,0,0,0-2.7-3.38,11.48,11.48,0,0,0-3.8-2,14.8,14.8,0,0,0-4.56-.68,20.58,20.58,0,0,0-4.33.46,12,12,0,0,0-3.8,1.48A8.33,8.33,0,0,0,485,11.05a7.16,7.16,0,0,0-1,3.95,6.93,6.93,0,0,0,1.18,4.1A10.66,10.66,0,0,0,488.23,22a21.8,21.8,0,0,0,4.44,2.09q2.5.87,5.16,1.71,3.19,1,6.34,2.13a23.52,23.52,0,0,1,5.62,2.88,14.48,14.48,0,0,1,4,4.29,12.12,12.12,0,0,1,1.56,6.42,15.28,15.28,0,0,1-1.4,6.76A13.62,13.62,0,0,1,510,53.12a17.49,17.49,0,0,1-6,3,29.16,29.16,0,0,1-10,.91,21.33,21.33,0,0,1-11-4.74,18.12,18.12,0,0,1-4.44-5.66,16.78,16.78,0,0,1-1.78-7.44Z"/><path class="cls-2" d="M11.14,27.11A31.57,31.57,0,0,0,12.7,37.55a21.84,21.84,0,0,0,4.1,7.33,16.91,16.91,0,0,0,5.73,4.33,15.68,15.68,0,0,0,6.53,1.44,15.12,15.12,0,0,0,6.23-1.25,16,16,0,0,0,4.86-3.3,18.21,18.21,0,0,0,3.38-4.67,20.45,20.45,0,0,0,1.86-5.35h5.69a28.26,28.26,0,0,1-2.54,7.63,22.29,22.29,0,0,1-4.59,6.19,20.87,20.87,0,0,1-6.53,4.18,21.94,21.94,0,0,1-8.35,1.52,23.54,23.54,0,0,1-9.72-1.94A20.36,20.36,0,0,1,11.94,48a26.05,26.05,0,0,1-4.75-9,42.5,42.5,0,0,1-1.6-14.89A30.27,30.27,0,0,1,11.71,8.32a22.78,22.78,0,0,1,7.36-6A21.09,21.09,0,0,1,29,0a26,26,0,0,1,8.39,1.25,20.81,20.81,0,0,1,6.42,3.45,19.68,19.68,0,0,1,4.56,5.24,28.38,28.38,0,0,1,2.89,6.68H45.31a17.55,17.55,0,0,0-6-8.81A17.13,17.13,0,0,0,29,4.94a14.79,14.79,0,0,0-7.21,1.78,17.73,17.73,0,0,0-5.62,4.86,23.88,23.88,0,0,0-3.68,7.1A26.69,26.69,0,0,0,11.14,27.11Z"/><path class="cls-2" d="M63.17,3V55.58H57.55V3Z"/><path class="cls-2" d="M109.15,3V8.13H91.77V55.58H86.15V8.13H68.76V3Z"/><path class="cls-2" d="M121.21,3V55.58h-5.62V3Z"/><path class="cls-2" d="M128.42,50,161.9,8.13H128.42V3H168V9.57L135,50.49h33v5.09H128.42Z"/><path class="cls-2" d="M208.35,3V8.13H178.9V25.89h27.71V31H178.9V50.49h30.75v5.09H173.28V3Z"/><path class="cls-2" d="M223.42,3l26.72,45.4V3h5.62V55.58h-7.52l-26.72-45.4v45.4h-5.62V3Z"/><path class="cls-2" d="M305.31,3V25.89h28.55V3h5.62V55.58h-5.62V30.83H305.31V55.58h-5.62V3Z"/><path class="cls-2" d="M370.69,3l19.13,52.54H383.9L378,39.48H355.5l-5.85,16.1h-6L363,3ZM366.74,8.2l-9.41,26.34h18.83Z"/><path class="cls-2" d="M393.92,27.18a31.57,31.57,0,0,0,1.56,10.44,21.84,21.84,0,0,0,4.1,7.33,16.91,16.91,0,0,0,5.73,4.33,15.68,15.68,0,0,0,6.53,1.44,15.12,15.12,0,0,0,6.23-1.25,16,16,0,0,0,4.86-3.3,18.21,18.21,0,0,0,3.38-4.67,20.45,20.45,0,0,0,1.86-5.35h5.69a28.26,28.26,0,0,1-2.54,7.63A22.29,22.29,0,0,1,426.72,50a20.87,20.87,0,0,1-6.53,4.18,21.94,21.94,0,0,1-8.35,1.52,23.54,23.54,0,0,1-9.72-1.94,20.36,20.36,0,0,1-7.4-5.62,26.05,26.05,0,0,1-4.75-9,42.5,42.5,0,0,1-1.6-14.89,30.27,30.27,0,0,1,6.12-15.86,22.78,22.78,0,0,1,7.36-6A21.09,21.09,0,0,1,411.76.08a26,26,0,0,1,8.39,1.25,20.81,20.81,0,0,1,6.42,3.45A19.68,19.68,0,0,1,431.12,10,28.38,28.38,0,0,1,434,16.71h-5.92a17.55,17.55,0,0,0-6-8.81A17.13,17.13,0,0,0,411.76,5a14.79,14.79,0,0,0-7.21,1.78,17.73,17.73,0,0,0-5.62,4.86,23.88,23.88,0,0,0-3.68,7.1A26.69,26.69,0,0,0,393.92,27.18Z"/><path class="cls-2" d="M444.79,3V29.92L471.59,3H479l-20.8,20.65,22,31.89h-7.06L454.28,27.72l-9.49,9.34V55.58h-5.62V3Z"/><path class="cls-2" d="M488.09,39.14a15.84,15.84,0,0,0,1.29,5.2,12.51,12.51,0,0,0,2.89,4.1,13,13,0,0,0,4.29,2.66A15,15,0,0,0,502,52a21.88,21.88,0,0,0,5-.57,12.43,12.43,0,0,0,4.25-1.82,9.33,9.33,0,0,0,2.92-3.26,10.08,10.08,0,0,0,1.1-4.9,6.64,6.64,0,0,0-1.18-4A10.49,10.49,0,0,0,511,34.7a23.68,23.68,0,0,0-4.4-2q-2.47-.87-5-1.63-3.19-.91-6.34-2.09a25.21,25.21,0,0,1-5.69-3,14.59,14.59,0,0,1-4.14-4.4A12.43,12.43,0,0,1,483.84,15a12.41,12.41,0,0,1,1.29-5.77A12,12,0,0,1,488.74,5a16.52,16.52,0,0,1,5.5-2.58,26.73,26.73,0,0,1,7.06-.87A21.43,21.43,0,0,1,509.81,3a15.52,15.52,0,0,1,5.47,3.76,14.55,14.55,0,0,1,3,5,20.24,20.24,0,0,1,1.1,5.35H513.6a12.44,12.44,0,0,0-1.25-4.59,10.43,10.43,0,0,0-2.7-3.38,11.48,11.48,0,0,0-3.8-2,14.8,14.8,0,0,0-4.56-.68A20.58,20.58,0,0,0,497,7a12,12,0,0,0-3.8,1.48,8.33,8.33,0,0,0-2.69,2.62,7.16,7.16,0,0,0-1,3.95,6.93,6.93,0,0,0,1.18,4.1A10.66,10.66,0,0,0,493.75,22a21.8,21.8,0,0,0,4.44,2.09q2.5.87,5.16,1.71,3.19,1,6.34,2.13a23.52,23.52,0,0,1,5.62,2.88,14.48,14.48,0,0,1,4,4.29,12.12,12.12,0,0,1,1.56,6.42,15.28,15.28,0,0,1-1.4,6.76,13.62,13.62,0,0,1-3.95,4.86,17.49,17.49,0,0,1-6,3,29.16,29.16,0,0,1-10,.91,21.33,21.33,0,0,1-11-4.74,18.12,18.12,0,0,1-4.44-5.66,16.78,16.78,0,0,1-1.78-7.44Z"/><path class="cls-3" d="M16.84,27.1A31.57,31.57,0,0,0,18.4,37.54a21.84,21.84,0,0,0,4.1,7.33,16.91,16.91,0,0,0,5.73,4.33,15.68,15.68,0,0,0,6.53,1.44A15.12,15.12,0,0,0,41,49.39a16,16,0,0,0,4.86-3.3,18.21,18.21,0,0,0,3.38-4.67,20.45,20.45,0,0,0,1.86-5.35h5.69a28.26,28.26,0,0,1-2.54,7.63,22.29,22.29,0,0,1-4.59,6.19,20.87,20.87,0,0,1-6.53,4.18,21.94,21.94,0,0,1-8.35,1.52A23.54,23.54,0,0,1,25,53.64,20.36,20.36,0,0,1,17.64,48a26.05,26.05,0,0,1-4.75-9,42.5,42.5,0,0,1-1.6-14.89A30.27,30.27,0,0,1,17.41,8.31a22.78,22.78,0,0,1,7.36-6A21.09,21.09,0,0,1,34.68,0a26,26,0,0,1,8.39,1.25,20.81,20.81,0,0,1,6.42,3.45A19.68,19.68,0,0,1,54,9.95a28.38,28.38,0,0,1,2.89,6.68H51a17.55,17.55,0,0,0-6-8.81A17.13,17.13,0,0,0,34.68,4.94a14.79,14.79,0,0,0-7.21,1.78,17.73,17.73,0,0,0-5.62,4.86,23.88,23.88,0,0,0-3.68,7.1A26.69,26.69,0,0,0,16.84,27.1Z"/><path class="cls-3" d="M68.87,3V55.57H63.25V3Z"/><path class="cls-3" d="M114.85,3V8.12H97.46V55.57H91.84V8.12H74.46V3Z"/><path class="cls-3" d="M126.91,3V55.57h-5.62V3Z"/><path class="cls-3" d="M134.12,50,167.6,8.12H134.12V3h39.56V9.57l-33,40.92h33v5.09H134.12Z"/><path class="cls-3" d="M214,3V8.12H184.59V25.89H212.3V31H184.59V50.49h30.75v5.09H179V3Z"/><path class="cls-3" d="M229.12,3l26.72,45.4V3h5.62V55.57h-7.52l-26.72-45.4v45.4H221.6V3Z"/><path class="cls-3" d="M311,3V25.89h28.55V3h5.62V55.57h-5.62V30.82H311V55.57h-5.62V3Z"/><path class="cls-3" d="M376.38,3l19.13,52.54h-5.92l-5.85-16.1H361.2l-5.85,16.1h-6L368.71,3ZM372.43,8.2,363,34.54h18.83Z"/><path class="cls-3" d="M399.61,27.18a31.57,31.57,0,0,0,1.56,10.44,21.84,21.84,0,0,0,4.1,7.33A16.91,16.91,0,0,0,411,49.27a15.68,15.68,0,0,0,6.53,1.44,15.12,15.12,0,0,0,6.23-1.25,16,16,0,0,0,4.86-3.3A18.21,18.21,0,0,0,432,41.49a20.45,20.45,0,0,0,1.86-5.35h5.69A28.26,28.26,0,0,1,437,43.77,22.29,22.29,0,0,1,432.41,50a20.87,20.87,0,0,1-6.53,4.18,21.94,21.94,0,0,1-8.35,1.52,23.54,23.54,0,0,1-9.72-1.94,20.36,20.36,0,0,1-7.4-5.62,26.05,26.05,0,0,1-4.75-9,42.5,42.5,0,0,1-1.6-14.89,30.27,30.27,0,0,1,6.12-15.86,22.78,22.78,0,0,1,7.36-6A21.09,21.09,0,0,1,417.46.08a26,26,0,0,1,8.39,1.25,20.81,20.81,0,0,1,6.42,3.45A19.68,19.68,0,0,1,436.82,10a28.38,28.38,0,0,1,2.89,6.68h-5.92a17.55,17.55,0,0,0-6-8.81A17.13,17.13,0,0,0,417.46,5a14.79,14.79,0,0,0-7.21,1.78,17.73,17.73,0,0,0-5.62,4.86,23.88,23.88,0,0,0-3.68,7.1A26.69,26.69,0,0,0,399.61,27.18Z"/><path class="cls-3" d="M450.49,3V29.91L477.29,3h7.36l-20.8,20.65,22,31.89h-7.06L460,27.71,450.49,37V55.57h-5.62V3Z"/><path class="cls-3" d="M493.79,39.14a15.84,15.84,0,0,0,1.29,5.2,12.51,12.51,0,0,0,2.89,4.1,13,13,0,0,0,4.29,2.66,15,15,0,0,0,5.43.95,21.88,21.88,0,0,0,5-.57,12.43,12.43,0,0,0,4.25-1.82,9.33,9.33,0,0,0,2.92-3.26,10.08,10.08,0,0,0,1.1-4.9,6.64,6.64,0,0,0-1.18-4,10.49,10.49,0,0,0-3.11-2.81,23.68,23.68,0,0,0-4.4-2q-2.47-.87-5-1.63-3.19-.91-6.34-2.09a25.21,25.21,0,0,1-5.69-3,14.59,14.59,0,0,1-4.14-4.4A12.43,12.43,0,0,1,489.54,15a12.41,12.41,0,0,1,1.29-5.77A12,12,0,0,1,494.44,5a16.52,16.52,0,0,1,5.5-2.58A26.73,26.73,0,0,1,507,1.56,21.43,21.43,0,0,1,515.51,3,15.52,15.52,0,0,1,521,6.8a14.55,14.55,0,0,1,3,5,20.24,20.24,0,0,1,1.1,5.35H519.3A12.44,12.44,0,0,0,518,12.6a10.43,10.43,0,0,0-2.7-3.38,11.48,11.48,0,0,0-3.8-2A14.8,14.8,0,0,0,507,6.49a20.58,20.58,0,0,0-4.33.46,12,12,0,0,0-3.8,1.48A8.33,8.33,0,0,0,496.18,11a7.16,7.16,0,0,0-1,3.95,6.93,6.93,0,0,0,1.18,4.1A10.66,10.66,0,0,0,499.45,22a21.8,21.8,0,0,0,4.44,2.09q2.5.87,5.16,1.71,3.19,1,6.34,2.13A23.52,23.52,0,0,1,521,30.79a14.48,14.48,0,0,1,4,4.29,12.12,12.12,0,0,1,1.56,6.42,15.28,15.28,0,0,1-1.4,6.76,13.62,13.62,0,0,1-3.95,4.86,17.49,17.49,0,0,1-6,3,29.16,29.16,0,0,1-10,.91,21.33,21.33,0,0,1-11-4.74,18.12,18.12,0,0,1-4.44-5.66A16.78,16.78,0,0,1,488,39.14Z"/></svg>