<svg id="Layer_1" data-name="Layer 1" xmlns="http://www.w3.org/2000/svg" viewBox="0 0 102.49 55.54"><defs><style>.cls-1{fill:#ef539e;}.cls-2{fill:#00aeef;}.cls-3{fill:#fff200;}</style></defs><title>colour logo 1 small</title><path class="cls-1" d="M57.1,1.49V24.34H85.65V1.49h5.62V54H85.65V29.28H57.1V54H51.49V1.49Z"/><path class="cls-2" d="M62.63,1.48V24.34H91.17V1.48h5.62V54H91.17V29.27H62.63V54H57V1.48Z"/><path class="cls-3" d="M68.32,1.48V24.33H96.87V1.48h5.62V54H96.87V29.27H68.32V54H62.71V1.48Z"/><path class="cls-1" d="M5.62,27.07A31.57,31.57,0,0,0,7.17,37.51a21.84,21.84,0,0,0,4.1,7.33A16.91,16.91,0,0,0,17,49.16a15.68,15.68,0,0,0,6.53,1.44,15.12,15.12,0,0,0,6.23-1.25,16,16,0,0,0,4.86-3.3A18.21,18.21,0,0,0,38,41.38,20.45,20.45,0,0,0,39.86,36h5.69A28.26,28.26,0,0,1,43,43.66a22.29,22.29,0,0,1-4.59,6.19A20.87,20.87,0,0,1,31.89,54a21.94,21.94,0,0,1-8.35,1.52,23.54,23.54,0,0,1-9.72-1.94A20.36,20.36,0,0,1,6.42,48a26.05,26.05,0,0,1-4.75-9A42.5,42.5,0,0,1,.07,24.14,30.27,30.27,0,0,1,6.19,8.28a22.78,22.78,0,0,1,7.36-6A21.09,21.09,0,0,1,23.46,0a26,26,0,0,1,8.39,1.25,20.81,20.81,0,0,1,6.42,3.45,19.68,19.68,0,0,1,4.56,5.24,28.38,28.38,0,0,1,2.89,6.68H39.78a17.55,17.55,0,0,0-6-8.81A17.13,17.13,0,0,0,23.46,4.9a14.79,14.79,0,0,0-7.21,1.78,17.73,17.73,0,0,0-5.62,4.86,23.88,23.88,0,0,0-3.68,7.1A26.69,26.69,0,0,0,5.62,27.07Z"/><path class="cls-2" d="M11.14,27.07A31.57,31.57,0,0,0,12.7,37.51a21.84,21.84,0,0,0,4.1,7.33,16.91,16.91,0,0,0,5.73,4.33,15.68,15.68,0,0,0,6.53,1.44,15.12,15.12,0,0,0,6.23-1.25A16,16,0,0,0,40.14,46a18.21,18.21,0,0,0,3.38-4.67A20.45,20.45,0,0,0,45.38,36h5.69a28.26,28.26,0,0,1-2.54,7.63,22.29,22.29,0,0,1-4.59,6.19A20.87,20.87,0,0,1,37.41,54a21.94,21.94,0,0,1-8.35,1.52,23.54,23.54,0,0,1-9.72-1.94A20.36,20.36,0,0,1,11.94,48a26.05,26.05,0,0,1-4.75-9,42.5,42.5,0,0,1-1.6-14.89A30.27,30.27,0,0,1,11.71,8.28a22.78,22.78,0,0,1,7.36-6A21.09,21.09,0,0,1,29,0a26,26,0,0,1,8.39,1.25,20.81,20.81,0,0,1,6.42,3.45,19.68,19.68,0,0,1,4.56,5.24,28.38,28.38,0,0,1,2.89,6.68H45.31a17.55,17.55,0,0,0-6-8.81A17.13,17.13,0,0,0,29,4.9a14.79,14.79,0,0,0-7.21,1.78,17.73,17.73,0,0,0-5.62,4.86,23.88,23.88,0,0,0-3.68,7.1A26.69,26.69,0,0,0,11.14,27.07Z"/><path class="cls-3" d="M16.84,27.06A31.57,31.57,0,0,0,18.4,37.5a21.84,21.84,0,0,0,4.1,7.33,16.91,16.91,0,0,0,5.73,4.33,15.68,15.68,0,0,0,6.53,1.44A15.12,15.12,0,0,0,41,49.35,16,16,0,0,0,45.84,46a18.21,18.21,0,0,0,3.38-4.67A20.45,20.45,0,0,0,51.08,36h5.69a28.26,28.26,0,0,1-2.54,7.63,22.29,22.29,0,0,1-4.59,6.19A20.87,20.87,0,0,1,43.11,54a21.94,21.94,0,0,1-8.35,1.52A23.54,23.54,0,0,1,25,53.6,20.36,20.36,0,0,1,17.64,48a26.05,26.05,0,0,1-4.75-9,42.5,42.5,0,0,1-1.6-14.89A30.27,30.27,0,0,1,17.41,8.27a22.78,22.78,0,0,1,7.36-6A21.09,21.09,0,0,1,34.68,0a26,26,0,0,1,8.39,1.25,20.81,20.81,0,0,1,6.42,3.45A19.68,19.68,0,0,1,54,9.9a28.38,28.38,0,0,1,2.89,6.68H51a17.55,17.55,0,0,0-6-8.81A17.13,17.13,0,0,0,34.68,4.89a14.79,14.79,0,0,0-7.21,1.78,17.73,17.73,0,0,0-5.62,4.86,23.88,23.88,0,0,0-3.68,7.1A26.69,26.69,0,0,0,16.84,27.06Z"/></svg>