<svg id="Layer_1" data-name="Layer 1" xmlns="http://www.w3.org/2000/svg" viewBox="0 0 261.46 121.97"><defs><style>.cls-1{fill:#ef539e;}.cls-2{fill:#00aeef;}.cls-3{fill:#fff200;}</style></defs><title>Logo_Vertical</title><path class="cls-1" d="M5.62,27.1A31.57,31.57,0,0,0,7.17,37.54a21.84,21.84,0,0,0,4.1,7.33A16.91,16.91,0,0,0,17,49.2a15.68,15.68,0,0,0,6.53,1.44,15.12,15.12,0,0,0,6.23-1.25,16,16,0,0,0,4.86-3.3A18.21,18.21,0,0,0,38,41.42a20.45,20.45,0,0,0,1.86-5.35h5.69A28.26,28.26,0,0,1,43,43.69a22.29,22.29,0,0,1-4.59,6.19,20.87,20.87,0,0,1-6.53,4.18,21.94,21.94,0,0,1-8.35,1.52,23.54,23.54,0,0,1-9.72-1.94A20.36,20.36,0,0,1,6.42,48a26.05,26.05,0,0,1-4.75-9A42.5,42.5,0,0,1,.07,24.17,30.27,30.27,0,0,1,6.19,8.31a22.78,22.78,0,0,1,7.36-6A21.09,21.09,0,0,1,23.46,0a26,26,0,0,1,8.39,1.25,20.81,20.81,0,0,1,6.42,3.45,19.68,19.68,0,0,1,4.56,5.24,28.38,28.38,0,0,1,2.89,6.68H39.78a17.55,17.55,0,0,0-6-8.81A17.13,17.13,0,0,0,23.46,4.94a14.79,14.79,0,0,0-7.21,1.78,17.73,17.73,0,0,0-5.62,4.86,23.88,23.88,0,0,0-3.68,7.1A26.69,26.69,0,0,0,5.62,27.1Z"/><path class="cls-1" d="M57.65,3V55.57H52V3Z"/><path class="cls-1" d="M103.63,3V8.12H86.24V55.57H80.62V8.12H63.24V3Z"/><path class="cls-1" d="M115.69,3V55.57h-5.62V3Z"/><path class="cls-1" d="M122.9,50,156.38,8.12H122.9V3h39.56V9.57l-33,40.92h33v5.09H122.9Z"/><path class="cls-1" d="M202.83,3V8.12H173.37V25.89h27.71V31H173.37V50.49h30.75v5.09H167.75V3Z"/><path class="cls-1" d="M217.9,3l26.72,45.4V3h5.62V55.57h-7.52L216,10.17v45.4h-5.62V3Z"/><path class="cls-2" d="M11.14,27.1A31.57,31.57,0,0,0,12.7,37.54a21.84,21.84,0,0,0,4.1,7.33,16.91,16.91,0,0,0,5.73,4.33,15.68,15.68,0,0,0,6.53,1.44,15.12,15.12,0,0,0,6.23-1.25,16,16,0,0,0,4.86-3.3,18.21,18.21,0,0,0,3.38-4.67,20.45,20.45,0,0,0,1.86-5.35h5.69a28.26,28.26,0,0,1-2.54,7.63,22.29,22.29,0,0,1-4.59,6.19,20.87,20.87,0,0,1-6.53,4.18,21.94,21.94,0,0,1-8.35,1.52,23.54,23.54,0,0,1-9.72-1.94A20.36,20.36,0,0,1,11.94,48a26.05,26.05,0,0,1-4.75-9,42.5,42.5,0,0,1-1.6-14.89A30.27,30.27,0,0,1,11.71,8.31a22.78,22.78,0,0,1,7.36-6A21.09,21.09,0,0,1,29,0a26,26,0,0,1,8.39,1.25A20.81,20.81,0,0,1,43.79,4.7a19.68,19.68,0,0,1,4.56,5.24,28.38,28.38,0,0,1,2.89,6.68H45.31a17.55,17.55,0,0,0-6-8.81A17.13,17.13,0,0,0,29,4.93a14.79,14.79,0,0,0-7.21,1.78,17.73,17.73,0,0,0-5.62,4.86,23.88,23.88,0,0,0-3.68,7.1A26.69,26.69,0,0,0,11.14,27.1Z"/><path class="cls-2" d="M63.17,3V55.57H57.55V3Z"/><path class="cls-2" d="M109.15,3V8.12H91.77V55.57H86.15V8.12H68.76V3Z"/><path class="cls-2" d="M121.21,3V55.57h-5.62V3Z"/><path class="cls-2" d="M128.42,50,161.9,8.12H128.42V3H168V9.56L135,50.48h33v5.09H128.42Z"/><path class="cls-2" d="M208.35,3V8.12H178.9V25.89h27.71V31H178.9V50.48h30.75v5.09H173.28V3Z"/><path class="cls-2" d="M223.42,3l26.72,45.4V3h5.62V55.57h-7.52l-26.72-45.4v45.4h-5.62V3Z"/><path class="cls-3" d="M16.84,27.1A31.57,31.57,0,0,0,18.4,37.53a21.84,21.84,0,0,0,4.1,7.33,16.91,16.91,0,0,0,5.73,4.33,15.68,15.68,0,0,0,6.53,1.44A15.12,15.12,0,0,0,41,49.38a16,16,0,0,0,4.86-3.3,18.21,18.21,0,0,0,3.38-4.67,20.45,20.45,0,0,0,1.86-5.35h5.69a28.26,28.26,0,0,1-2.54,7.63,22.29,22.29,0,0,1-4.59,6.19A20.87,20.87,0,0,1,43.11,54a21.94,21.94,0,0,1-8.35,1.52A23.54,23.54,0,0,1,25,53.63,20.36,20.36,0,0,1,17.64,48a26.05,26.05,0,0,1-4.75-9,42.5,42.5,0,0,1-1.6-14.89A30.27,30.27,0,0,1,17.41,8.31a22.78,22.78,0,0,1,7.36-6A21.09,21.09,0,0,1,34.68,0a26,26,0,0,1,8.39,1.25A20.81,20.81,0,0,1,49.49,4.7,19.68,19.68,0,0,1,54,9.94a28.38,28.38,0,0,1,2.89,6.68H51a17.55,17.55,0,0,0-6-8.81A17.13,17.13,0,0,0,34.68,4.93a14.79,14.79,0,0,0-7.21,1.78,17.73,17.73,0,0,0-5.62,4.86,23.88,23.88,0,0,0-3.68,7.1A26.69,26.69,0,0,0,16.84,27.1Z"/><path class="cls-3" d="M68.87,3V55.57H63.25V3Z"/><path class="cls-3" d="M114.85,3V8.12H97.46V55.57H91.84V8.12H74.46V3Z"/><path class="cls-3" d="M126.91,3V55.57h-5.62V3Z"/><path class="cls-3" d="M134.12,50,167.6,8.12H134.12V3h39.56V9.56l-33,40.92h33v5.09H134.12Z"/><path class="cls-3" d="M214,3V8.12H184.59V25.88H212.3V31H184.59V50.48h30.75v5.09H179V3Z"/><path class="cls-3" d="M229.12,3l26.72,45.4V3h5.62V55.57h-7.52l-26.72-45.4v45.4H221.6V3Z"/><path class="cls-1" d="M9.6,68V90.81H38.15V68h5.62v52.54H38.15V95.74H9.6v24.75H4V68Z"/><path class="cls-1" d="M75,68l19.13,52.54H88.19l-5.85-16.1H59.8L54,120.49H48L67.32,68ZM71,73.12,61.62,99.46H80.45Z"/><path class="cls-1" d="M98.22,92.1a31.57,31.57,0,0,0,1.56,10.44,21.84,21.84,0,0,0,4.1,7.33,16.91,16.91,0,0,0,5.73,4.33,15.68,15.68,0,0,0,6.53,1.44,15.12,15.12,0,0,0,6.23-1.25,16,16,0,0,0,4.86-3.3,18.21,18.21,0,0,0,3.38-4.67,20.45,20.45,0,0,0,1.86-5.35h5.69a28.26,28.26,0,0,1-2.54,7.63,22.29,22.29,0,0,1-4.59,6.19,20.87,20.87,0,0,1-6.53,4.18,21.94,21.94,0,0,1-8.35,1.52,23.54,23.54,0,0,1-9.72-1.94A20.36,20.36,0,0,1,99,113a26.05,26.05,0,0,1-4.75-9,42.5,42.5,0,0,1-1.6-14.89,30.27,30.27,0,0,1,6.12-15.86,22.78,22.78,0,0,1,7.36-6A21.09,21.09,0,0,1,116.06,65a26,26,0,0,1,8.39,1.25,20.81,20.81,0,0,1,6.42,3.45,19.68,19.68,0,0,1,4.56,5.24,28.38,28.38,0,0,1,2.89,6.68h-5.92a17.55,17.55,0,0,0-6-8.81,17.13,17.13,0,0,0-10.29-2.88,14.79,14.79,0,0,0-7.21,1.78,17.73,17.73,0,0,0-5.62,4.86,23.88,23.88,0,0,0-3.68,7.1A26.69,26.69,0,0,0,98.22,92.1Z"/><path class="cls-1" d="M149.09,68V94.83L175.89,68h7.36L162.45,88.6l22,31.89h-7.06L158.58,92.63,149.09,102v18.52h-5.62V68Z"/><path class="cls-1" d="M192.39,104.05a15.84,15.84,0,0,0,1.29,5.2,12.51,12.51,0,0,0,2.89,4.1,13,13,0,0,0,4.29,2.66,15,15,0,0,0,5.43.95,21.88,21.88,0,0,0,5-.57,12.43,12.43,0,0,0,4.25-1.82,9.33,9.33,0,0,0,2.92-3.26,10.08,10.08,0,0,0,1.1-4.9,6.64,6.64,0,0,0-1.18-4,10.49,10.49,0,0,0-3.11-2.81,23.68,23.68,0,0,0-4.4-2q-2.47-.87-5-1.63-3.19-.91-6.34-2.09a25.21,25.21,0,0,1-5.69-3,14.59,14.59,0,0,1-4.14-4.4,13.95,13.95,0,0,1-.3-12.34A12,12,0,0,1,193,69.93a16.52,16.52,0,0,1,5.5-2.58,26.73,26.73,0,0,1,7.06-.87,21.43,21.43,0,0,1,8.5,1.48,15.52,15.52,0,0,1,5.47,3.76,14.55,14.55,0,0,1,3,5,20.24,20.24,0,0,1,1.1,5.35H217.9a12.44,12.44,0,0,0-1.25-4.59,10.43,10.43,0,0,0-2.7-3.38,11.48,11.48,0,0,0-3.8-2,14.8,14.8,0,0,0-4.56-.68,20.58,20.58,0,0,0-4.33.46,12,12,0,0,0-3.8,1.48A8.33,8.33,0,0,0,194.79,76a7.16,7.16,0,0,0-1,3.95,6.93,6.93,0,0,0,1.18,4.1,10.66,10.66,0,0,0,3.11,2.89A21.8,21.8,0,0,0,202.49,89q2.5.87,5.16,1.71,3.19,1,6.34,2.13a23.52,23.52,0,0,1,5.62,2.88,14.48,14.48,0,0,1,4,4.29,12.12,12.12,0,0,1,1.56,6.42,15.28,15.28,0,0,1-1.4,6.76,13.62,13.62,0,0,1-3.95,4.86,17.49,17.49,0,0,1-6,3,29.16,29.16,0,0,1-10,.91,21.33,21.33,0,0,1-11-4.74,18.12,18.12,0,0,1-4.44-5.66,16.78,16.78,0,0,1-1.78-7.44Z"/><path class="cls-2" d="M15.13,67.95V90.8H43.67V67.95h5.62v52.54H43.67V95.74H15.13v24.75H9.51V67.95Z"/><path class="cls-2" d="M80.51,67.95l19.13,52.54H93.72l-5.85-16.1H65.32l-5.85,16.1h-6L72.84,67.95Zm-3.95,5.16L67.15,99.46H86Z"/><path class="cls-2" d="M103.74,92.09a31.57,31.57,0,0,0,1.56,10.44,21.84,21.84,0,0,0,4.1,7.33,16.91,16.91,0,0,0,5.73,4.33,15.68,15.68,0,0,0,6.53,1.44,15.12,15.12,0,0,0,6.23-1.25,16,16,0,0,0,4.86-3.3,18.21,18.21,0,0,0,3.38-4.67,20.45,20.45,0,0,0,1.86-5.35h5.69a28.26,28.26,0,0,1-2.54,7.63,22.29,22.29,0,0,1-4.59,6.19A20.87,20.87,0,0,1,130,119a21.94,21.94,0,0,1-8.35,1.52,23.54,23.54,0,0,1-9.72-1.94,20.36,20.36,0,0,1-7.4-5.62,26.05,26.05,0,0,1-4.75-9,42.5,42.5,0,0,1-1.6-14.89,30.27,30.27,0,0,1,6.12-15.86,22.78,22.78,0,0,1,7.36-6A21.09,21.09,0,0,1,121.58,65,26,26,0,0,1,130,66.24a20.81,20.81,0,0,1,6.42,3.45,19.68,19.68,0,0,1,4.56,5.24,28.38,28.38,0,0,1,2.89,6.68H137.9a17.55,17.55,0,0,0-6-8.81,17.13,17.13,0,0,0-10.29-2.88,14.79,14.79,0,0,0-7.21,1.78,17.73,17.73,0,0,0-5.62,4.86,23.88,23.88,0,0,0-3.68,7.1A26.69,26.69,0,0,0,103.74,92.09Z"/><path class="cls-2" d="M154.62,67.95V94.83l26.8-26.88h7.36L168,88.6l22,31.89h-7.06L164.11,92.62,154.62,102v18.52H149V67.95Z"/><path class="cls-2" d="M197.92,104.05a15.84,15.84,0,0,0,1.29,5.2,12.51,12.51,0,0,0,2.89,4.1,13,13,0,0,0,4.29,2.66,15,15,0,0,0,5.43.95,21.88,21.88,0,0,0,5-.57,12.43,12.43,0,0,0,4.25-1.82A9.33,9.33,0,0,0,224,111.3a10.08,10.08,0,0,0,1.1-4.9,6.64,6.64,0,0,0-1.18-4,10.49,10.49,0,0,0-3.11-2.81,23.68,23.68,0,0,0-4.4-2q-2.47-.87-5-1.63-3.19-.91-6.34-2.09a25.21,25.21,0,0,1-5.69-3,14.59,14.59,0,0,1-4.14-4.4,13.95,13.95,0,0,1-.3-12.34,12,12,0,0,1,3.61-4.21,16.52,16.52,0,0,1,5.5-2.58,26.73,26.73,0,0,1,7.06-.87,21.43,21.43,0,0,1,8.5,1.48,15.52,15.52,0,0,1,5.47,3.76,14.55,14.55,0,0,1,3,5,20.24,20.24,0,0,1,1.1,5.35h-5.77a12.44,12.44,0,0,0-1.25-4.59,10.43,10.43,0,0,0-2.7-3.38,11.48,11.48,0,0,0-3.8-2,14.8,14.8,0,0,0-4.56-.68,20.58,20.58,0,0,0-4.33.46,12,12,0,0,0-3.8,1.48A8.33,8.33,0,0,0,200.31,76a7.16,7.16,0,0,0-1,3.95,6.93,6.93,0,0,0,1.18,4.1,10.66,10.66,0,0,0,3.11,2.89A21.8,21.8,0,0,0,208,89q2.5.87,5.16,1.71,3.19,1,6.34,2.13a23.52,23.52,0,0,1,5.62,2.88,14.48,14.48,0,0,1,4,4.29,12.12,12.12,0,0,1,1.56,6.42,15.28,15.28,0,0,1-1.4,6.76,13.62,13.62,0,0,1-3.95,4.86,17.49,17.49,0,0,1-6,3,29.16,29.16,0,0,1-10,.91,21.33,21.33,0,0,1-11-4.74,18.12,18.12,0,0,1-4.44-5.66,16.78,16.78,0,0,1-1.78-7.44Z"/><path class="cls-3" d="M20.82,67.95V90.8H49.37V67.95H55v52.54H49.37V95.73H20.82v24.75H15.21V67.95Z"/><path class="cls-3" d="M86.2,67.95l19.13,52.54H99.42l-5.85-16.1H71l-5.85,16.1h-6L78.54,67.95Zm-3.95,5.16L72.84,99.45H91.67Z"/><path class="cls-3" d="M109.44,92.09A31.57,31.57,0,0,0,111,102.53a21.84,21.84,0,0,0,4.1,7.33,16.91,16.91,0,0,0,5.73,4.33,15.68,15.68,0,0,0,6.53,1.44,15.12,15.12,0,0,0,6.23-1.25,16,16,0,0,0,4.86-3.3,18.21,18.21,0,0,0,3.38-4.67,20.45,20.45,0,0,0,1.86-5.35h5.69a28.26,28.26,0,0,1-2.54,7.63,22.29,22.29,0,0,1-4.59,6.19,20.87,20.87,0,0,1-6.53,4.18,21.94,21.94,0,0,1-8.35,1.52,23.54,23.54,0,0,1-9.72-1.94,20.36,20.36,0,0,1-7.4-5.62,26.05,26.05,0,0,1-4.75-9,42.5,42.5,0,0,1-1.6-14.89A30.27,30.27,0,0,1,110,73.3a22.78,22.78,0,0,1,7.36-6A21.09,21.09,0,0,1,127.28,65a26,26,0,0,1,8.39,1.25,20.81,20.81,0,0,1,6.42,3.45,19.68,19.68,0,0,1,4.56,5.24,28.38,28.38,0,0,1,2.89,6.68H143.6a17.55,17.55,0,0,0-6-8.81,17.13,17.13,0,0,0-10.29-2.88,14.79,14.79,0,0,0-7.21,1.78,17.73,17.73,0,0,0-5.62,4.86,23.88,23.88,0,0,0-3.68,7.1A26.69,26.69,0,0,0,109.44,92.09Z"/><path class="cls-3" d="M160.31,67.95V94.82l26.8-26.88h7.36L173.67,88.6l22,31.89h-7.06L169.8,92.62,160.31,102v18.52h-5.62V67.95Z"/><path class="cls-3" d="M203.61,104a15.84,15.84,0,0,0,1.29,5.2,12.51,12.51,0,0,0,2.89,4.1,13,13,0,0,0,4.29,2.66,15,15,0,0,0,5.43.95,21.88,21.88,0,0,0,5-.57,12.43,12.43,0,0,0,4.25-1.82,9.33,9.33,0,0,0,2.92-3.26,10.08,10.08,0,0,0,1.1-4.9,6.64,6.64,0,0,0-1.18-4,10.49,10.49,0,0,0-3.11-2.81,23.68,23.68,0,0,0-4.4-2q-2.47-.87-5-1.63-3.19-.91-6.34-2.09a25.21,25.21,0,0,1-5.69-3,14.59,14.59,0,0,1-4.14-4.4,13.95,13.95,0,0,1-.3-12.34,12,12,0,0,1,3.61-4.21,16.52,16.52,0,0,1,5.5-2.58,26.73,26.73,0,0,1,7.06-.87,21.43,21.43,0,0,1,8.5,1.48,15.52,15.52,0,0,1,5.47,3.76,14.55,14.55,0,0,1,3,5,20.24,20.24,0,0,1,1.1,5.35h-5.77a12.44,12.44,0,0,0-1.25-4.59,10.43,10.43,0,0,0-2.7-3.38,11.48,11.48,0,0,0-3.8-2,14.8,14.8,0,0,0-4.56-.68,20.58,20.58,0,0,0-4.33.46,12,12,0,0,0-3.8,1.48A8.33,8.33,0,0,0,206,76a7.16,7.16,0,0,0-1,3.95,6.93,6.93,0,0,0,1.18,4.1,10.66,10.66,0,0,0,3.11,2.89A21.8,21.8,0,0,0,213.71,89q2.5.87,5.16,1.71,3.19,1,6.34,2.13a23.52,23.52,0,0,1,5.62,2.88,14.48,14.48,0,0,1,4,4.29,12.12,12.12,0,0,1,1.56,6.42,15.28,15.28,0,0,1-1.4,6.76,13.62,13.62,0,0,1-3.95,4.86,17.49,17.49,0,0,1-6,3,29.16,29.16,0,0,1-10,.91,21.33,21.33,0,0,1-11-4.74,18.12,18.12,0,0,1-4.44-5.66,16.78,16.78,0,0,1-1.78-7.44Z"/></svg>